# xmcd
#
# Track frame offsets:
#	150
#	11475
#	27375
#	38250
#	50325
#	65550
#	74625
#	91950
#	106275
#	123225
#	135600
#	148050
#	160200
#	173175
#	191850
#	204375
#	219000
#	232950
#	246900
#	259950
#
# Disc length: 3639 seconds
#
# Revision: 2
# Processed by: cddbd v1.5.1PL2 Copyright (c) Steve Scherf et al.
# Submitted via: audiograbber 1.83.01
#
DISCID=1c0e3514
DTITLE=Various Artist - DKG-801
DYEAR=1900
DGENRE=Karaoke
TTITLE0=Gospel - Rock Of Ages
TTITLE1=Gospel - Onward Christian Soldiers
TTITLE2=Gospel - Jesus Loves Me
TTITLE3=Gospel - Wings Of A Dove
TTITLE4=Gospel - Abide With Me
TTITLE5=Gospel - Go Tell It On The Mountain
TTITLE6=Gospel - How Great Thou Art
TTITLE7=Gospel - Nearer My God To Thee
TTITLE8=Gospel - In The Garden
TTITLE9=Gospel - Jesus Is Coming Soon
TTITLE10=Gospel - I Need Thee Every Hour
TTITLE11=Gospel - Little Brown Church The Vale
TTITLE12=Gospel - When The Roll Is Called Up Yonder
TTITLE13=Gospel - Sweet Hour Of Prayer
TTITLE14=Gospel - Flow Gently Sweet Afton
TTITLE15=Gospel - Take My Hand, Precious Lord
TTITLE16=Gospel - Precious Memories
TTITLE17=Gospel - Whispering Hope
TTITLE18=Gospel - I'll Fly Away
TTITLE19=Gospel - Beautiful Isle Of Somewhere
EXTD=
EXTT0=
EXTT1=
EXTT2=
EXTT3=
EXTT4=
EXTT5=
EXTT6=
EXTT7=
EXTT8=
EXTT9=
EXTT10=
EXTT11=
EXTT12=
EXTT13=
EXTT14=
EXTT15=
EXTT16=
EXTT17=
EXTT18=
EXTT19=
PLAYORDER=
